<mxfile host="app.diagrams.net" agent="Mozilla/5.0 (Windows NT 10.0; Win64; x64) AppleWebKit/537.36 (KHTML, like Gecko) Chrome/132.0.0.0 Safari/537.36" version="26.0.6">
  <diagram id="R2lEEEUBdFMjLlhIrx00" name="Page-1">
    <mxGraphModel dx="780" dy="485" grid="1" gridSize="10" guides="1" tooltips="1" connect="1" arrows="1" fold="1" page="1" pageScale="1" pageWidth="850" pageHeight="1100" math="0" shadow="0" extFonts="Permanent Marker^https://fonts.googleapis.com/css?family=Permanent+Marker">
      <root>
        <mxCell id="0" />
        <mxCell id="1" parent="0" />
        <mxCell id="NbmsGISIxCD2SphW_Kis-65" value="PATIENTS" style="shape=table;startSize=30;container=1;collapsible=0;childLayout=tableLayout;shadow=0;" vertex="1" parent="1">
          <mxGeometry x="85" y="210" width="335" height="280" as="geometry" />
        </mxCell>
        <mxCell id="NbmsGISIxCD2SphW_Kis-66" value="" style="shape=tableRow;horizontal=0;startSize=0;swimlaneHead=0;swimlaneBody=0;strokeColor=inherit;top=0;left=0;bottom=0;right=0;collapsible=0;dropTarget=0;fillColor=none;points=[[0,0.5],[1,0.5]];portConstraint=eastwest;" vertex="1" parent="NbmsGISIxCD2SphW_Kis-65">
          <mxGeometry y="30" width="335" height="31" as="geometry" />
        </mxCell>
        <mxCell id="NbmsGISIxCD2SphW_Kis-67" value="Field" style="shape=partialRectangle;html=1;whiteSpace=wrap;connectable=0;strokeColor=inherit;overflow=hidden;fillColor=none;top=0;left=0;bottom=0;right=0;pointerEvents=1;" vertex="1" parent="NbmsGISIxCD2SphW_Kis-66">
          <mxGeometry width="168" height="31" as="geometry">
            <mxRectangle width="168" height="31" as="alternateBounds" />
          </mxGeometry>
        </mxCell>
        <mxCell id="NbmsGISIxCD2SphW_Kis-68" value="Data type" style="shape=partialRectangle;html=1;whiteSpace=wrap;connectable=0;strokeColor=inherit;overflow=hidden;fillColor=none;top=0;left=0;bottom=0;right=0;pointerEvents=1;" vertex="1" parent="NbmsGISIxCD2SphW_Kis-66">
          <mxGeometry x="168" width="167" height="31" as="geometry">
            <mxRectangle width="167" height="31" as="alternateBounds" />
          </mxGeometry>
        </mxCell>
        <mxCell id="NbmsGISIxCD2SphW_Kis-69" value="" style="shape=tableRow;horizontal=0;startSize=0;swimlaneHead=0;swimlaneBody=0;strokeColor=inherit;top=0;left=0;bottom=0;right=0;collapsible=0;dropTarget=0;fillColor=none;points=[[0,0.5],[1,0.5]];portConstraint=eastwest;" vertex="1" parent="NbmsGISIxCD2SphW_Kis-65">
          <mxGeometry y="61" width="335" height="30" as="geometry" />
        </mxCell>
        <mxCell id="NbmsGISIxCD2SphW_Kis-70" value="Patient-id" style="shape=partialRectangle;html=1;whiteSpace=wrap;connectable=0;strokeColor=inherit;overflow=hidden;fillColor=none;top=0;left=0;bottom=0;right=0;pointerEvents=1;" vertex="1" parent="NbmsGISIxCD2SphW_Kis-69">
          <mxGeometry width="168" height="30" as="geometry">
            <mxRectangle width="168" height="30" as="alternateBounds" />
          </mxGeometry>
        </mxCell>
        <mxCell id="NbmsGISIxCD2SphW_Kis-71" value="INT (AUTO INCREMENT)" style="shape=partialRectangle;html=1;whiteSpace=wrap;connectable=0;strokeColor=inherit;overflow=hidden;fillColor=none;top=0;left=0;bottom=0;right=0;pointerEvents=1;" vertex="1" parent="NbmsGISIxCD2SphW_Kis-69">
          <mxGeometry x="168" width="167" height="30" as="geometry">
            <mxRectangle width="167" height="30" as="alternateBounds" />
          </mxGeometry>
        </mxCell>
        <mxCell id="NbmsGISIxCD2SphW_Kis-72" value="" style="shape=tableRow;horizontal=0;startSize=0;swimlaneHead=0;swimlaneBody=0;strokeColor=inherit;top=0;left=0;bottom=0;right=0;collapsible=0;dropTarget=0;fillColor=none;points=[[0,0.5],[1,0.5]];portConstraint=eastwest;" vertex="1" parent="NbmsGISIxCD2SphW_Kis-65">
          <mxGeometry y="91" width="335" height="31" as="geometry" />
        </mxCell>
        <mxCell id="NbmsGISIxCD2SphW_Kis-73" value="First_name" style="shape=partialRectangle;html=1;whiteSpace=wrap;connectable=0;strokeColor=inherit;overflow=hidden;fillColor=none;top=0;left=0;bottom=0;right=0;pointerEvents=1;" vertex="1" parent="NbmsGISIxCD2SphW_Kis-72">
          <mxGeometry width="168" height="31" as="geometry">
            <mxRectangle width="168" height="31" as="alternateBounds" />
          </mxGeometry>
        </mxCell>
        <mxCell id="NbmsGISIxCD2SphW_Kis-74" value="VARCHAR" style="shape=partialRectangle;html=1;whiteSpace=wrap;connectable=0;strokeColor=inherit;overflow=hidden;fillColor=none;top=0;left=0;bottom=0;right=0;pointerEvents=1;" vertex="1" parent="NbmsGISIxCD2SphW_Kis-72">
          <mxGeometry x="168" width="167" height="31" as="geometry">
            <mxRectangle width="167" height="31" as="alternateBounds" />
          </mxGeometry>
        </mxCell>
        <mxCell id="NbmsGISIxCD2SphW_Kis-75" value="" style="shape=tableRow;horizontal=0;startSize=0;swimlaneHead=0;swimlaneBody=0;strokeColor=inherit;top=0;left=0;bottom=0;right=0;collapsible=0;dropTarget=0;fillColor=none;points=[[0,0.5],[1,0.5]];portConstraint=eastwest;" vertex="1" parent="NbmsGISIxCD2SphW_Kis-65">
          <mxGeometry y="122" width="335" height="31" as="geometry" />
        </mxCell>
        <mxCell id="NbmsGISIxCD2SphW_Kis-76" value="Last_name" style="shape=partialRectangle;html=1;whiteSpace=wrap;connectable=0;strokeColor=inherit;overflow=hidden;fillColor=none;top=0;left=0;bottom=0;right=0;pointerEvents=1;" vertex="1" parent="NbmsGISIxCD2SphW_Kis-75">
          <mxGeometry width="168" height="31" as="geometry">
            <mxRectangle width="168" height="31" as="alternateBounds" />
          </mxGeometry>
        </mxCell>
        <mxCell id="NbmsGISIxCD2SphW_Kis-77" value="VARCHAR" style="shape=partialRectangle;html=1;whiteSpace=wrap;connectable=0;strokeColor=inherit;overflow=hidden;fillColor=none;top=0;left=0;bottom=0;right=0;pointerEvents=1;" vertex="1" parent="NbmsGISIxCD2SphW_Kis-75">
          <mxGeometry x="168" width="167" height="31" as="geometry">
            <mxRectangle width="167" height="31" as="alternateBounds" />
          </mxGeometry>
        </mxCell>
        <mxCell id="NbmsGISIxCD2SphW_Kis-78" value="" style="shape=tableRow;horizontal=0;startSize=0;swimlaneHead=0;swimlaneBody=0;strokeColor=inherit;top=0;left=0;bottom=0;right=0;collapsible=0;dropTarget=0;fillColor=none;points=[[0,0.5],[1,0.5]];portConstraint=eastwest;" vertex="1" parent="NbmsGISIxCD2SphW_Kis-65">
          <mxGeometry y="153" width="335" height="35" as="geometry" />
        </mxCell>
        <mxCell id="NbmsGISIxCD2SphW_Kis-79" value="Date_of_birth" style="shape=partialRectangle;html=1;whiteSpace=wrap;connectable=0;strokeColor=inherit;overflow=hidden;fillColor=none;top=0;left=0;bottom=0;right=0;pointerEvents=1;" vertex="1" parent="NbmsGISIxCD2SphW_Kis-78">
          <mxGeometry width="168" height="35" as="geometry">
            <mxRectangle width="168" height="35" as="alternateBounds" />
          </mxGeometry>
        </mxCell>
        <mxCell id="NbmsGISIxCD2SphW_Kis-80" value="DATE" style="shape=partialRectangle;html=1;whiteSpace=wrap;connectable=0;strokeColor=inherit;overflow=hidden;fillColor=none;top=0;left=0;bottom=0;right=0;pointerEvents=1;" vertex="1" parent="NbmsGISIxCD2SphW_Kis-78">
          <mxGeometry x="168" width="167" height="35" as="geometry">
            <mxRectangle width="167" height="35" as="alternateBounds" />
          </mxGeometry>
        </mxCell>
        <mxCell id="NbmsGISIxCD2SphW_Kis-81" value="" style="shape=tableRow;horizontal=0;startSize=0;swimlaneHead=0;swimlaneBody=0;strokeColor=inherit;top=0;left=0;bottom=0;right=0;collapsible=0;dropTarget=0;fillColor=none;points=[[0,0.5],[1,0.5]];portConstraint=eastwest;" vertex="1" parent="NbmsGISIxCD2SphW_Kis-65">
          <mxGeometry y="188" width="335" height="31" as="geometry" />
        </mxCell>
        <mxCell id="NbmsGISIxCD2SphW_Kis-82" value="Gender" style="shape=partialRectangle;html=1;whiteSpace=wrap;connectable=0;strokeColor=inherit;overflow=hidden;fillColor=none;top=0;left=0;bottom=0;right=0;pointerEvents=1;" vertex="1" parent="NbmsGISIxCD2SphW_Kis-81">
          <mxGeometry width="168" height="31" as="geometry">
            <mxRectangle width="168" height="31" as="alternateBounds" />
          </mxGeometry>
        </mxCell>
        <mxCell id="NbmsGISIxCD2SphW_Kis-83" value="VARCHAR" style="shape=partialRectangle;html=1;whiteSpace=wrap;connectable=0;strokeColor=inherit;overflow=hidden;fillColor=none;top=0;left=0;bottom=0;right=0;pointerEvents=1;" vertex="1" parent="NbmsGISIxCD2SphW_Kis-81">
          <mxGeometry x="168" width="167" height="31" as="geometry">
            <mxRectangle width="167" height="31" as="alternateBounds" />
          </mxGeometry>
        </mxCell>
        <mxCell id="NbmsGISIxCD2SphW_Kis-84" value="" style="shape=tableRow;horizontal=0;startSize=0;swimlaneHead=0;swimlaneBody=0;strokeColor=inherit;top=0;left=0;bottom=0;right=0;collapsible=0;dropTarget=0;fillColor=none;points=[[0,0.5],[1,0.5]];portConstraint=eastwest;" vertex="1" parent="NbmsGISIxCD2SphW_Kis-65">
          <mxGeometry y="219" width="335" height="30" as="geometry" />
        </mxCell>
        <mxCell id="NbmsGISIxCD2SphW_Kis-85" value="Language" style="shape=partialRectangle;html=1;whiteSpace=wrap;connectable=0;strokeColor=inherit;overflow=hidden;fillColor=none;top=0;left=0;bottom=0;right=0;pointerEvents=1;" vertex="1" parent="NbmsGISIxCD2SphW_Kis-84">
          <mxGeometry width="168" height="30" as="geometry">
            <mxRectangle width="168" height="30" as="alternateBounds" />
          </mxGeometry>
        </mxCell>
        <mxCell id="NbmsGISIxCD2SphW_Kis-86" value="VARCHAR" style="shape=partialRectangle;html=1;whiteSpace=wrap;connectable=0;strokeColor=inherit;overflow=hidden;fillColor=none;top=0;left=0;bottom=0;right=0;pointerEvents=1;" vertex="1" parent="NbmsGISIxCD2SphW_Kis-84">
          <mxGeometry x="168" width="167" height="30" as="geometry">
            <mxRectangle width="167" height="30" as="alternateBounds" />
          </mxGeometry>
        </mxCell>
        <mxCell id="NbmsGISIxCD2SphW_Kis-87" value="" style="shape=tableRow;horizontal=0;startSize=0;swimlaneHead=0;swimlaneBody=0;strokeColor=inherit;top=0;left=0;bottom=0;right=0;collapsible=0;dropTarget=0;fillColor=none;points=[[0,0.5],[1,0.5]];portConstraint=eastwest;" vertex="1" parent="NbmsGISIxCD2SphW_Kis-65">
          <mxGeometry y="249" width="335" height="31" as="geometry" />
        </mxCell>
        <mxCell id="NbmsGISIxCD2SphW_Kis-88" value="" style="shape=partialRectangle;html=1;whiteSpace=wrap;connectable=0;strokeColor=inherit;overflow=hidden;fillColor=none;top=0;left=0;bottom=0;right=0;pointerEvents=1;" vertex="1" parent="NbmsGISIxCD2SphW_Kis-87">
          <mxGeometry width="168" height="31" as="geometry">
            <mxRectangle width="168" height="31" as="alternateBounds" />
          </mxGeometry>
        </mxCell>
        <mxCell id="NbmsGISIxCD2SphW_Kis-89" value="" style="shape=partialRectangle;html=1;whiteSpace=wrap;connectable=0;strokeColor=inherit;overflow=hidden;fillColor=none;top=0;left=0;bottom=0;right=0;pointerEvents=1;" vertex="1" parent="NbmsGISIxCD2SphW_Kis-87">
          <mxGeometry x="168" width="167" height="31" as="geometry">
            <mxRectangle width="167" height="31" as="alternateBounds" />
          </mxGeometry>
        </mxCell>
        <mxCell id="NbmsGISIxCD2SphW_Kis-125" value="PK" style="text;html=1;align=center;verticalAlign=middle;whiteSpace=wrap;rounded=0;" vertex="1" parent="1">
          <mxGeometry x="85" y="240" width="60" height="30" as="geometry" />
        </mxCell>
        <mxCell id="NbmsGISIxCD2SphW_Kis-126" value="PATIENTS" style="shape=table;startSize=30;container=1;collapsible=0;childLayout=tableLayout;shadow=0;" vertex="1" parent="1">
          <mxGeometry x="526" y="210" width="335" height="280" as="geometry" />
        </mxCell>
        <mxCell id="NbmsGISIxCD2SphW_Kis-127" value="" style="shape=tableRow;horizontal=0;startSize=0;swimlaneHead=0;swimlaneBody=0;strokeColor=inherit;top=0;left=0;bottom=0;right=0;collapsible=0;dropTarget=0;fillColor=none;points=[[0,0.5],[1,0.5]];portConstraint=eastwest;" vertex="1" parent="NbmsGISIxCD2SphW_Kis-126">
          <mxGeometry y="30" width="335" height="31" as="geometry" />
        </mxCell>
        <mxCell id="NbmsGISIxCD2SphW_Kis-128" value="Field" style="shape=partialRectangle;html=1;whiteSpace=wrap;connectable=0;strokeColor=inherit;overflow=hidden;fillColor=none;top=0;left=0;bottom=0;right=0;pointerEvents=1;" vertex="1" parent="NbmsGISIxCD2SphW_Kis-127">
          <mxGeometry width="168" height="31" as="geometry">
            <mxRectangle width="168" height="31" as="alternateBounds" />
          </mxGeometry>
        </mxCell>
        <mxCell id="NbmsGISIxCD2SphW_Kis-129" value="Data type" style="shape=partialRectangle;html=1;whiteSpace=wrap;connectable=0;strokeColor=inherit;overflow=hidden;fillColor=none;top=0;left=0;bottom=0;right=0;pointerEvents=1;" vertex="1" parent="NbmsGISIxCD2SphW_Kis-127">
          <mxGeometry x="168" width="167" height="31" as="geometry">
            <mxRectangle width="167" height="31" as="alternateBounds" />
          </mxGeometry>
        </mxCell>
        <mxCell id="NbmsGISIxCD2SphW_Kis-130" value="" style="shape=tableRow;horizontal=0;startSize=0;swimlaneHead=0;swimlaneBody=0;strokeColor=inherit;top=0;left=0;bottom=0;right=0;collapsible=0;dropTarget=0;fillColor=none;points=[[0,0.5],[1,0.5]];portConstraint=eastwest;" vertex="1" parent="NbmsGISIxCD2SphW_Kis-126">
          <mxGeometry y="61" width="335" height="30" as="geometry" />
        </mxCell>
        <mxCell id="NbmsGISIxCD2SphW_Kis-131" value="Provider_id" style="shape=partialRectangle;html=1;whiteSpace=wrap;connectable=0;strokeColor=inherit;overflow=hidden;fillColor=none;top=0;left=0;bottom=0;right=0;pointerEvents=1;" vertex="1" parent="NbmsGISIxCD2SphW_Kis-130">
          <mxGeometry width="168" height="30" as="geometry">
            <mxRectangle width="168" height="30" as="alternateBounds" />
          </mxGeometry>
        </mxCell>
        <mxCell id="NbmsGISIxCD2SphW_Kis-132" value="INT (AUTO INCREMENT)" style="shape=partialRectangle;html=1;whiteSpace=wrap;connectable=0;strokeColor=inherit;overflow=hidden;fillColor=none;top=0;left=0;bottom=0;right=0;pointerEvents=1;" vertex="1" parent="NbmsGISIxCD2SphW_Kis-130">
          <mxGeometry x="168" width="167" height="30" as="geometry">
            <mxRectangle width="167" height="30" as="alternateBounds" />
          </mxGeometry>
        </mxCell>
        <mxCell id="NbmsGISIxCD2SphW_Kis-133" value="" style="shape=tableRow;horizontal=0;startSize=0;swimlaneHead=0;swimlaneBody=0;strokeColor=inherit;top=0;left=0;bottom=0;right=0;collapsible=0;dropTarget=0;fillColor=none;points=[[0,0.5],[1,0.5]];portConstraint=eastwest;" vertex="1" parent="NbmsGISIxCD2SphW_Kis-126">
          <mxGeometry y="91" width="335" height="31" as="geometry" />
        </mxCell>
        <mxCell id="NbmsGISIxCD2SphW_Kis-134" value="First_name" style="shape=partialRectangle;html=1;whiteSpace=wrap;connectable=0;strokeColor=inherit;overflow=hidden;fillColor=none;top=0;left=0;bottom=0;right=0;pointerEvents=1;" vertex="1" parent="NbmsGISIxCD2SphW_Kis-133">
          <mxGeometry width="168" height="31" as="geometry">
            <mxRectangle width="168" height="31" as="alternateBounds" />
          </mxGeometry>
        </mxCell>
        <mxCell id="NbmsGISIxCD2SphW_Kis-135" value="VARCHAR" style="shape=partialRectangle;html=1;whiteSpace=wrap;connectable=0;strokeColor=inherit;overflow=hidden;fillColor=none;top=0;left=0;bottom=0;right=0;pointerEvents=1;" vertex="1" parent="NbmsGISIxCD2SphW_Kis-133">
          <mxGeometry x="168" width="167" height="31" as="geometry">
            <mxRectangle width="167" height="31" as="alternateBounds" />
          </mxGeometry>
        </mxCell>
        <mxCell id="NbmsGISIxCD2SphW_Kis-136" value="" style="shape=tableRow;horizontal=0;startSize=0;swimlaneHead=0;swimlaneBody=0;strokeColor=inherit;top=0;left=0;bottom=0;right=0;collapsible=0;dropTarget=0;fillColor=none;points=[[0,0.5],[1,0.5]];portConstraint=eastwest;" vertex="1" parent="NbmsGISIxCD2SphW_Kis-126">
          <mxGeometry y="122" width="335" height="31" as="geometry" />
        </mxCell>
        <mxCell id="NbmsGISIxCD2SphW_Kis-137" value="Last_name" style="shape=partialRectangle;html=1;whiteSpace=wrap;connectable=0;strokeColor=inherit;overflow=hidden;fillColor=none;top=0;left=0;bottom=0;right=0;pointerEvents=1;" vertex="1" parent="NbmsGISIxCD2SphW_Kis-136">
          <mxGeometry width="168" height="31" as="geometry">
            <mxRectangle width="168" height="31" as="alternateBounds" />
          </mxGeometry>
        </mxCell>
        <mxCell id="NbmsGISIxCD2SphW_Kis-138" value="VARCHAR" style="shape=partialRectangle;html=1;whiteSpace=wrap;connectable=0;strokeColor=inherit;overflow=hidden;fillColor=none;top=0;left=0;bottom=0;right=0;pointerEvents=1;" vertex="1" parent="NbmsGISIxCD2SphW_Kis-136">
          <mxGeometry x="168" width="167" height="31" as="geometry">
            <mxRectangle width="167" height="31" as="alternateBounds" />
          </mxGeometry>
        </mxCell>
        <mxCell id="NbmsGISIxCD2SphW_Kis-139" value="" style="shape=tableRow;horizontal=0;startSize=0;swimlaneHead=0;swimlaneBody=0;strokeColor=inherit;top=0;left=0;bottom=0;right=0;collapsible=0;dropTarget=0;fillColor=none;points=[[0,0.5],[1,0.5]];portConstraint=eastwest;" vertex="1" parent="NbmsGISIxCD2SphW_Kis-126">
          <mxGeometry y="153" width="335" height="35" as="geometry" />
        </mxCell>
        <mxCell id="NbmsGISIxCD2SphW_Kis-140" value="Provider_specialty" style="shape=partialRectangle;html=1;whiteSpace=wrap;connectable=0;strokeColor=inherit;overflow=hidden;fillColor=none;top=0;left=0;bottom=0;right=0;pointerEvents=1;" vertex="1" parent="NbmsGISIxCD2SphW_Kis-139">
          <mxGeometry width="168" height="35" as="geometry">
            <mxRectangle width="168" height="35" as="alternateBounds" />
          </mxGeometry>
        </mxCell>
        <mxCell id="NbmsGISIxCD2SphW_Kis-141" value="VARCHAR" style="shape=partialRectangle;html=1;whiteSpace=wrap;connectable=0;strokeColor=inherit;overflow=hidden;fillColor=none;top=0;left=0;bottom=0;right=0;pointerEvents=1;" vertex="1" parent="NbmsGISIxCD2SphW_Kis-139">
          <mxGeometry x="168" width="167" height="35" as="geometry">
            <mxRectangle width="167" height="35" as="alternateBounds" />
          </mxGeometry>
        </mxCell>
        <mxCell id="NbmsGISIxCD2SphW_Kis-142" value="" style="shape=tableRow;horizontal=0;startSize=0;swimlaneHead=0;swimlaneBody=0;strokeColor=inherit;top=0;left=0;bottom=0;right=0;collapsible=0;dropTarget=0;fillColor=none;points=[[0,0.5],[1,0.5]];portConstraint=eastwest;" vertex="1" parent="NbmsGISIxCD2SphW_Kis-126">
          <mxGeometry y="188" width="335" height="31" as="geometry" />
        </mxCell>
        <mxCell id="NbmsGISIxCD2SphW_Kis-143" value="Email_address" style="shape=partialRectangle;html=1;whiteSpace=wrap;connectable=0;strokeColor=inherit;overflow=hidden;fillColor=none;top=0;left=0;bottom=0;right=0;pointerEvents=1;" vertex="1" parent="NbmsGISIxCD2SphW_Kis-142">
          <mxGeometry width="168" height="31" as="geometry">
            <mxRectangle width="168" height="31" as="alternateBounds" />
          </mxGeometry>
        </mxCell>
        <mxCell id="NbmsGISIxCD2SphW_Kis-144" value="VARCHAR" style="shape=partialRectangle;html=1;whiteSpace=wrap;connectable=0;strokeColor=inherit;overflow=hidden;fillColor=none;top=0;left=0;bottom=0;right=0;pointerEvents=1;" vertex="1" parent="NbmsGISIxCD2SphW_Kis-142">
          <mxGeometry x="168" width="167" height="31" as="geometry">
            <mxRectangle width="167" height="31" as="alternateBounds" />
          </mxGeometry>
        </mxCell>
        <mxCell id="NbmsGISIxCD2SphW_Kis-145" value="" style="shape=tableRow;horizontal=0;startSize=0;swimlaneHead=0;swimlaneBody=0;strokeColor=inherit;top=0;left=0;bottom=0;right=0;collapsible=0;dropTarget=0;fillColor=none;points=[[0,0.5],[1,0.5]];portConstraint=eastwest;" vertex="1" parent="NbmsGISIxCD2SphW_Kis-126">
          <mxGeometry y="219" width="335" height="30" as="geometry" />
        </mxCell>
        <mxCell id="NbmsGISIxCD2SphW_Kis-146" value="Phone_number" style="shape=partialRectangle;html=1;whiteSpace=wrap;connectable=0;strokeColor=inherit;overflow=hidden;fillColor=none;top=0;left=0;bottom=0;right=0;pointerEvents=1;" vertex="1" parent="NbmsGISIxCD2SphW_Kis-145">
          <mxGeometry width="168" height="30" as="geometry">
            <mxRectangle width="168" height="30" as="alternateBounds" />
          </mxGeometry>
        </mxCell>
        <mxCell id="NbmsGISIxCD2SphW_Kis-147" value="VARCHAR" style="shape=partialRectangle;html=1;whiteSpace=wrap;connectable=0;strokeColor=inherit;overflow=hidden;fillColor=none;top=0;left=0;bottom=0;right=0;pointerEvents=1;" vertex="1" parent="NbmsGISIxCD2SphW_Kis-145">
          <mxGeometry x="168" width="167" height="30" as="geometry">
            <mxRectangle width="167" height="30" as="alternateBounds" />
          </mxGeometry>
        </mxCell>
        <mxCell id="NbmsGISIxCD2SphW_Kis-148" value="" style="shape=tableRow;horizontal=0;startSize=0;swimlaneHead=0;swimlaneBody=0;strokeColor=inherit;top=0;left=0;bottom=0;right=0;collapsible=0;dropTarget=0;fillColor=none;points=[[0,0.5],[1,0.5]];portConstraint=eastwest;" vertex="1" parent="NbmsGISIxCD2SphW_Kis-126">
          <mxGeometry y="249" width="335" height="31" as="geometry" />
        </mxCell>
        <mxCell id="NbmsGISIxCD2SphW_Kis-149" value="Date_joined" style="shape=partialRectangle;html=1;whiteSpace=wrap;connectable=0;strokeColor=inherit;overflow=hidden;fillColor=none;top=0;left=0;bottom=0;right=0;pointerEvents=1;" vertex="1" parent="NbmsGISIxCD2SphW_Kis-148">
          <mxGeometry width="168" height="31" as="geometry">
            <mxRectangle width="168" height="31" as="alternateBounds" />
          </mxGeometry>
        </mxCell>
        <mxCell id="NbmsGISIxCD2SphW_Kis-150" value="DATE" style="shape=partialRectangle;html=1;whiteSpace=wrap;connectable=0;strokeColor=inherit;overflow=hidden;fillColor=none;top=0;left=0;bottom=0;right=0;pointerEvents=1;" vertex="1" parent="NbmsGISIxCD2SphW_Kis-148">
          <mxGeometry x="168" width="167" height="31" as="geometry">
            <mxRectangle width="167" height="31" as="alternateBounds" />
          </mxGeometry>
        </mxCell>
        <mxCell id="NbmsGISIxCD2SphW_Kis-151" value="PK" style="text;html=1;align=center;verticalAlign=middle;whiteSpace=wrap;rounded=0;" vertex="1" parent="1">
          <mxGeometry x="530" y="270" width="60" height="30" as="geometry" />
        </mxCell>
        <mxCell id="NbmsGISIxCD2SphW_Kis-154" value="" style="endArrow=none;html=1;rounded=0;exitX=1.022;exitY=-0.133;exitDx=0;exitDy=0;exitPerimeter=0;" edge="1" parent="1" source="NbmsGISIxCD2SphW_Kis-78">
          <mxGeometry width="50" height="50" relative="1" as="geometry">
            <mxPoint x="476" y="410" as="sourcePoint" />
            <mxPoint x="526" y="360" as="targetPoint" />
            <Array as="points">
              <mxPoint x="420" y="360" />
            </Array>
          </mxGeometry>
        </mxCell>
        <mxCell id="NbmsGISIxCD2SphW_Kis-155" value="Related" style="text;html=1;align=center;verticalAlign=middle;resizable=0;points=[];autosize=1;strokeColor=none;fillColor=none;" vertex="1" parent="1">
          <mxGeometry x="450" y="330" width="60" height="30" as="geometry" />
        </mxCell>
      </root>
    </mxGraphModel>
  </diagram>
</mxfile>
